<?xml version="1.0" encoding="UTF-8"?>
<svg width="44px" height="44px" viewBox="0 0 44 44" version="1.1" xmlns="http://www.w3.org/2000/svg" xmlns:xlink="http://www.w3.org/1999/xlink">
    <!-- Generator: Sketch 51.3 (57544) - http://www.bohemiancoding.com/sketch -->
    <title>Download data icon</title>
    <desc>Created with Sketch.</desc>
    <defs>
        <polygon id="path-1" points="0 44 44 44 44 0 0 0"></polygon>
        <path d="M37,18.2352941 L34.1428571,18.2352941 L34.1428571,14 L29.8571429,14 L29.8571429,18.2352941 L27,18.2352941 L32,23.1764706 L37,18.2352941 L37,18.2352941 Z M27,24.5882353 L27,26 L37,26 L37,24.5882353 L27,24.5882353 L27,24.5882353 Z" id="path-3"></path>
    </defs>
    <g id="Design" stroke="none" stroke-width="1" fill="none" fill-rule="evenodd">
        <g id="iPhone-X" transform="translate(-43.000000, -333.000000)">
            <g id="Download-data-icon" transform="translate(43.000000, 333.000000)">
                <g id="download">
                    <path d="M20,18.2727273 L20,18.4446364 C20,20.6315455 20.6490313,22.7705455 21.8673125,24.6023636 L30.3888125,37.4095909 C30.6331875,37.7780682 31.0515,38 31.5,38 C31.9485,38 32.3668125,37.7780682 32.6111875,37.4095909 L41.1326875,24.6023636 C42.3509687,22.7705455 43,20.6315455 43,18.4446364 L43,18.2727273 C43,12.0466591 37.850875,7 31.5,7 C25.149125,7 20,12.0466591 20,18.2727273" id="Fill-1" fill="#FFCB57"></path>
                    <path d="M31.5,8.43478261 C25.4183824,8.43478261 20.4705882,13.2621087 20.4705882,19.1956522 L20.4705882,19.3706957 C20.4705882,21.4633261 21.0904412,23.4956957 22.2625,25.249 L30.9794118,38.2897391 C31.2088235,38.6348043 31.7911765,38.6348043 32.0205882,38.2897391 L40.7375,25.249 C41.9095588,23.4956957 42.5294118,21.4633261 42.5294118,19.3706957 L42.5294118,19.1956522 C42.5294118,13.2621087 37.5816176,8.43478261 31.5,8.43478261 M31.5,40 C30.7904412,40 30.1360294,39.6542174 29.7470588,39.0731304 L21.0301471,26.0323913 C19.7022059,24.0466522 19,21.7423913 19,19.3706957 L19,19.1956522 C19,12.4708261 24.6073529,7 31.5,7 C38.3926471,7 44,12.4708261 44,19.1956522 L44,19.3706957 C44,21.7423913 43.2977941,24.0466522 41.9698529,26.0323913 L33.2529412,39.0731304 C32.8639706,39.6542174 32.2095588,40 31.5,40" id="Fill-3" fill="#3F3A34"></path>
                    <polygon id="Fill-5" fill="#E56565" points="18 16 11 16 11 8 12.4 8 12.4 14.5454545 18 14.5454545"></polygon>
                    <polygon id="Fill-7" fill="#E56565" points="16.5 35 15 35 15 19 18 19 18 20.3913043 16.5 20.3913043"></polygon>
                    <polygon id="Fill-9" fill="#E56565" points="12 36 10.6153846 36 10.6153846 30.5555556 3 30.5555556 3 29 12 29"></polygon>
                    <polygon id="Fill-11" fill="#E56565" points="12 26 3 26 3 24.6 10.6153846 24.6 10.6153846 20.4 3 20.4 3 19 12 19"></polygon>
                    <polygon id="Fill-13" fill="#E56565" points="8 16 3 16 3 14.5454545 6.57142857 14.5454545 6.57142857 8 8 8"></polygon>
                    <mask id="mask-2" fill="white">
                        <use xlink:href="#path-1"></use>
                    </mask>
                    <g id="Clip-16"></g>
                    <polygon id="Fill-15" fill="#3F3A34" mask="url(#mask-2)" points="23 35 25 35 25 30 23 30"></polygon>
                    <path d="M1.47058824,36 L0,36 L0,3.6 C0,1.61496 1.64926471,0 3.67647059,0 L21.3235294,0 C23.3507353,0 25,1.61496 25,3.6 L25,7.92 L23.5294118,7.92 L23.5294118,3.6 C23.5294118,2.40912 22.5397059,1.44 21.3235294,1.44 L3.67647059,1.44 C2.46029412,1.44 1.47058824,2.40912 1.47058824,3.6 L1.47058824,36 Z" id="Fill-17" fill="#3F3A34" mask="url(#mask-2)"></path>
                    <path d="M1.47058824,38.4 L1.47058824,40.5 C1.47058824,41.6578 2.46029412,42.6 3.67647059,42.6 L21.3235294,42.6 C22.5397059,42.6 23.5294118,41.6578 23.5294118,40.5 L23.5294118,38.4 L1.47058824,38.4 Z M21.3235294,44 L3.67647059,44 C1.64926471,44 0,42.4299 0,40.5 L0,37 L25,37 L25,40.5 C25,42.4299 23.3507353,44 21.3235294,44 Z" id="Fill-18" fill="#3F3A34" mask="url(#mask-2)"></path>
                    <polygon id="Fill-19" fill="#3F3A34" mask="url(#mask-2)" points="9 42 15 42 15 40 9 40"></polygon>
                    <polygon id="Fill-20" fill="#3F3A34" mask="url(#mask-2)" points="1 6 24 6 24 4 1 4"></polygon>
                    <polygon id="Fill-21" fill="#3F3A34" mask="url(#mask-2)" points="22 36 3 36 3 7 22 7 22 10.625 20.5384615 10.625 20.5384615 8.45 4.46153846 8.45 4.46153846 34.55 20.5384615 34.55 20.5384615 27.3 22 27.3"></polygon>
                    <path d="M32.5,12.3636364 C29.1161364,12.3636364 26.3636364,15.1161364 26.3636364,18.5 C26.3636364,21.8838636 29.1161364,24.6363636 32.5,24.6363636 C35.8838636,24.6363636 38.6363636,21.8838636 38.6363636,18.5 C38.6363636,15.1161364 35.8838636,12.3636364 32.5,12.3636364 M32.5,26 C28.3647727,26 25,22.6352273 25,18.5 C25,14.3647727 28.3647727,11 32.5,11 C36.6352273,11 40,14.3647727 40,18.5 C40,22.6352273 36.6352273,26 32.5,26" id="Fill-22" fill="#3F3A34" mask="url(#mask-2)"></path>
                    <polygon id="Fill-23" fill="#3F3A34" mask="url(#mask-2)" points="29 20 31 20 31 18 29 18"></polygon>
                    <polygon id="Fill-24" fill="#3F3A34" mask="url(#mask-2)" points="31 20 33 20 33 18 31 18"></polygon>
                    <polygon id="Fill-25" fill="#3F3A34" mask="url(#mask-2)" points="34 20 36 20 36 18 34 18"></polygon>
                </g>
                <circle id="Oval" fill="#FFCB57" fill-rule="nonzero" cx="32.5" cy="18.5" r="8.5"></circle>
                <mask id="mask-4" fill="white">
                    <use xlink:href="#path-3"></use>
                </mask>
                <use id="Mask" fill="#000000" xlink:href="#path-3"></use>
            </g>
        </g>
    </g>
</svg>