<?xml version="1.0" encoding="UTF-8"?>
<svg width="32px" height="43px" viewBox="0 0 32 43" version="1.1" xmlns="http://www.w3.org/2000/svg" xmlns:xlink="http://www.w3.org/1999/xlink">
    <!-- Generator: Sketch 51.3 (57544) - http://www.bohemiancoding.com/sketch -->
    <title>icons8-wheelchair</title>
    <desc>Created with Sketch.</desc>
    <defs></defs>
    <g id="Design" stroke="none" stroke-width="1" fill="none" fill-rule="evenodd">
        <g id="icons8-wheelchair" fill="#00826F" fill-rule="nonzero">
            <path d="M16.8888889,0 C14.4340276,0 12.4444444,1.94897937 12.4444444,4.3537415 C12.4444444,6.75850362 14.4340276,8.70748299 16.8888889,8.70748299 C19.3437502,8.70748299 21.3333333,6.75850362 21.3333333,4.3537415 C21.3333333,1.94897937 19.3437502,0 16.8888889,0 Z M12.6111111,10.4489796 C12.2569449,10.4489796 11.9097227,10.5476188 11.5555556,10.7210884 L3.80555556,14.0952381 C3.18402756,14.3571426 2.84375022,14.9013603 2.66666667,15.5102041 L0.5,23.1564626 C0.347222222,23.7006803 0.524305778,24.2823131 0.888888889,24.707483 C1.94791644,23.3911562 3.26388889,22.2687077 4.77777778,21.4693878 L5.91666667,17.5782313 L11.9166667,15.2380952 L11.2222222,20.0544218 C13.993056,20.1734696 16.5138889,21.1598637 18.5277778,22.7755102 L19.6388889,15.0748299 C19.993056,12.6360546 18.1354169,10.4489796 15.5555556,10.4489796 L12.6111111,10.4489796 Z M10.6666667,21.7687075 C4.78472267,21.7687075 0,26.4557827 0,32.2176871 C0,37.9795923 4.78472267,42.6666667 10.6666667,42.6666667 C16.5486116,42.6666667 21.3333333,37.9795923 21.3333333,32.2176871 C21.3333333,26.4557827 16.5486116,21.7687075 10.6666667,21.7687075 Z M20.1944444,24.3809524 C21.4687502,25.8639456 22.368056,27.6462585 22.8055556,29.6054422 L23.6388889,29.6054422 L27.0833333,37.6326531 C27.4375004,38.5918372 28.4895831,39.2755104 29.5555556,39.1020408 C30.9756942,38.8401363 31.7847227,37.4421769 31.25,36.1360544 L27.1944444,25.7687075 C26.8402782,24.986395 26.0555556,24.3809524 25.1666667,24.3809524 L20.1944444,24.3809524 Z M10.6666667,30.4761905 C11.6493058,30.4761905 12.4444444,31.2551018 12.4444444,32.2176871 C12.4444444,33.1802723 11.6493058,33.9591837 10.6666667,33.9591837 C9.68402756,33.9591837 8.88888889,33.1802723 8.88888889,32.2176871 C8.88888889,31.2551018 9.68402756,30.4761905 10.6666667,30.4761905 Z M22.5833333,35.7006803 C22.3958338,36.3129252 22.1666667,36.9013603 21.8888889,37.4693878 L26.0277778,41.5510204 C26.1944444,41.7142857 26.4305556,41.7959184 26.6666667,41.7959184 L31.1111111,41.7959184 C31.6041671,41.7959184 32,41.4081637 32,40.9251701 C32,40.4421773 31.6041671,40.0544218 31.1111111,40.0544218 L27.0277778,40.0544218 L22.5833333,35.7006803 Z" id="Shape"></path>
        </g>
    </g>
</svg>