<?xml version="1.0" encoding="UTF-8"?>
<svg width="16px" height="16px" viewBox="0 0 16 16" version="1.1" xmlns="http://www.w3.org/2000/svg" xmlns:xlink="http://www.w3.org/1999/xlink">
    <!-- Generator: Sketch 51.3 (57544) - http://www.bohemiancoding.com/sketch -->
    <title>info-icon</title>
    <desc>Created with Sketch.</desc>
    <defs>
        <path d="M9.1,10.5 L4.9,10.5 L4.9,9.1 L6.3,9.1 L6.3,7 L5.6,7 L5.6,5.6 L7,5.6 C7.3864,5.6 7.7,5.9136 7.7,6.3 L7.7,9.1 L9.1,9.1 L9.1,10.5 Z M7,3.325 C7.483,3.325 7.875,3.717 7.875,4.2 C7.875,4.683 7.483,5.075 7,5.075 C6.517,5.075 6.125,4.683 6.125,4.2 C6.125,3.717 6.517,3.325 7,3.325 L7,3.325 Z M7,0 C3.1402,0 0,3.1402 0,7 C0,10.8605 3.1402,14 7,14 C10.8598,14 14,10.8605 14,7 C14,3.1402 10.8598,0 7,0 L7,0 Z" id="path-1"></path>
    </defs>
    <g id="Design" stroke="none" stroke-width="1" fill="none" fill-rule="evenodd">
        <g id="iPhone-X" transform="translate(-94.000000, -264.000000)">
            <g id="info-icon" transform="translate(95.000000, 265.000000)">
                <mask id="mask-2" fill="white">
                    <use xlink:href="#path-1"></use>
                </mask>
                <path stroke="#00826F" d="M8.6,10 L8.6,9.6 L7.2,9.6 L7.2,6.3 C7.2,6.18974237 7.11025763,6.1 7,6.1 L6.1,6.1 L6.1,6.5 L6.8,6.5 L6.8,9.6 L5.4,9.6 L5.4,10 L8.6,10 Z M7,3.825 C6.79314237,3.825 6.625,3.99314237 6.625,4.2 C6.625,4.40685763 6.79314237,4.575 7,4.575 C7.20685763,4.575 7.375,4.40685763 7.375,4.2 C7.375,3.99314237 7.20685763,3.825 7,3.825 Z M7,-0.5 C11.1359424,-0.5 14.5,2.86405763 14.5,7 C14.5,11.1364085 11.1361763,14.5 7,14.5 C2.86382372,14.5 -0.5,11.1364085 -0.5,7 C-0.5,2.86405763 2.86405763,-0.5 7,-0.5 Z"></path>
            </g>
        </g>
    </g>
</svg>