<?xml version="1.0" encoding="UTF-8"?>
<svg width="100%" height="100%" viewBox="0 0 89 41" version="1.1" xmlns="http://www.w3.org/2000/svg" xmlns:xlink="http://www.w3.org/1999/xlink">
    <!-- Generator: Sketch 51.3 (57544) - http://www.bohemiancoding.com/sketch -->
    <title>Kee-logo-nav</title>
    <desc>Created with Sketch.</desc>
    <defs>
        <polygon id="path-1" points="0 0.0443846637 13.3002878 0.0443846637 13.3002878 12.9984809 0 12.9984809"></polygon>
    </defs>
    <g id="Design" stroke="none" stroke-width="1" fill="none" fill-rule="evenodd">
        <g id="iPhone-X" transform="translate(-12.000000, -8.000000)">
            <g id="Kee-logo-nav" transform="translate(1.000000, -1.000000)">
                <g id="Group-32" transform="translate(32.331053, 32.664443) scale(-1, 1) rotate(40.000000) translate(-32.331053, -32.664443) translate(11.053384, 8.918774)">
                    <path d="M25.2446914,47.4913374 L25.2446914,30.9413259 L25.2446914,47.4913374 Z" id="Fill-1" fill="#ED7371"></path>
                    <g id="Group-31">
                        <path d="M33.5565853,30.7942214 L33.5565853,46.9966164" id="Fill-4" fill="#ED7371"></path>
                        <polygon id="Fill-8" fill="#ED7371" points="9.50230471 11.3181511 0.686486221 22.9140707 12.6140608 14.7035315"></polygon>
                        <g id="Group-12" transform="translate(0.000000, 10.594595)">
                            <mask id="mask-2" fill="white">
                                <use xlink:href="#path-1"></use>
                            </mask>
                            <g id="Clip-11"></g>
                            <path d="M9.55243765,1.78749827 L3.80774172,9.3433458 L11.5799935,3.99334719 L9.55243765,1.78749827 Z M0.686650951,12.9984809 C0.505447582,12.9984809 0.325616965,12.9278503 0.191910842,12.7906639 C-0.0417316852,12.5505197 -0.0647939322,12.1778073 0.137824381,11.9110409 L8.95364287,0.315392931 C9.07691607,0.153485793 9.26608141,0.0546029105 9.47034703,0.045094941 C9.6776327,0.0358586278 9.8725636,0.117083853 10.0101134,0.266494802 L13.1215949,3.65187526 C13.2544774,3.79666805 13.3181731,3.99090228 13.2959345,4.18513652 C13.2736959,4.37937075 13.167994,4.5548607 13.0057346,4.66651143 L1.0784346,12.8767789 C0.959554208,12.9585475 0.822553479,12.9984809 0.686650951,12.9984809 Z" id="Fill-10" fill="#ED7371" mask="url(#mask-2)"></path>
                        </g>
                        <path d="M28.2564691,8.11040664 C26.8439065,8.11040664 25.4810375,8.31822369 24.1939445,8.6996291 C24.2084957,8.50485155 24.2183795,8.30871572 24.2183795,8.11040664 C24.2183795,3.6968072 20.602274,0.119094109 16.1416511,0.119094109 C11.6813027,0.119094109 8.06519726,3.6968072 8.06519726,8.11040664 C8.06519726,12.309126 11.338389,15.7488377 15.4970064,16.0740102 C14.6165227,17.8979104 14.1228808,19.9394073 14.1228808,22.0952715 C14.1228808,29.8190026 20.4504476,36.0801363 28.2564691,36.0801363 C36.0624906,36.0801363 42.390332,29.8190026 42.390332,22.0952715 C42.390332,14.3715404 36.0624906,8.11040664 28.2564691,8.11040664" id="Fill-13" fill="#00A991"></path>
                        <path d="M17.1819506,6.89683658 C17.1819506,5.448637 15.9956177,4.27481025 14.5319886,4.27481025 C13.0683596,4.27481025 11.8817521,5.448637 11.8817521,6.89683658 C11.8817521,8.34503616 13.0683596,9.51913457 14.5319886,9.51913457 C15.9956177,9.51913457 17.1819506,8.34503616 17.1819506,6.89683658" id="Fill-15" fill="#FEFEFE"></path>
                        <path d="M15.6928158,6.89683658 C15.6928158,6.26251919 15.1730916,5.74827387 14.5317415,5.74827387 C13.8909405,5.74827387 13.3712163,6.26251919 13.3712163,6.89683658 C13.3712163,7.53115398 13.8909405,8.04567095 14.5317415,8.04567095 C15.1730916,8.04567095 15.6928158,7.53115398 15.6928158,6.89683658" id="Fill-17" fill="#1A3C57"></path>
                        <path d="M30.4129265,14.6656898 L26.1000117,14.6656898 C25.6590835,14.6656898 25.297775,14.3084618 25.297775,13.8719102 C25.297775,13.4353585 25.6590835,13.0781305 26.1000117,13.0781305 L30.4129265,13.0781305 C30.8541292,13.0781305 31.2151632,13.4353585 31.2151632,13.8719102 C31.2151632,14.3084618 30.8541292,14.6656898 30.4129265,14.6656898" id="Fill-19" fill="#00826F"></path>
                        <path d="M38.6716819,20.3442023 L34.3590417,20.3442023 C33.9178389,20.3442023 33.5565304,19.9869743 33.5565304,19.5504227 C33.5565304,19.1138711 33.9178389,18.7566431 34.3590417,18.7566431 L38.6716819,18.7566431 C39.1128847,18.7566431 39.4739186,19.1138711 39.4739186,19.5504227 C39.4739186,19.9869743 39.1128847,20.3442023 38.6716819,20.3442023" id="Fill-21" fill="#00826F"></path>
                        <path d="M23.4158956,19.294604 L19.1032554,19.294604 C18.6620527,19.294604 18.3010187,18.937376 18.3010187,18.5008244 C18.3010187,18.0642727 18.6620527,17.7070447 19.1032554,17.7070447 L23.4158956,17.7070447 C23.8570984,17.7070447 24.2184069,18.0642727 24.2184069,18.5008244 C24.2184069,18.937376 23.8570984,19.294604 23.4158956,19.294604" id="Fill-23" fill="#00826F"></path>
                        <path d="M32.2505758,23.7076873 L27.937661,23.7076873 C27.4967328,23.7076873 27.1354243,23.3504593 27.1354243,22.9139077 C27.1354243,22.477356 27.4967328,22.120128 27.937661,22.120128 L32.2505758,22.120128 C32.6917785,22.120128 33.0528125,22.477356 33.0528125,22.9139077 C33.0528125,23.3504593 32.6917785,23.7076873 32.2505758,23.7076873" id="Fill-25" fill="#00826F"></path>
                        <path d="M23.4158956,26.9268413 L19.1032554,26.9268413 C18.6620527,26.9268413 18.3010187,26.5698849 18.3010187,26.1330616 C18.3010187,25.69651 18.6620527,25.339282 19.1032554,25.339282 L23.4158956,25.339282 C23.8570984,25.339282 24.2184069,25.69651 24.2184069,26.1330616 C24.2184069,26.5698849 23.8570984,26.9268413 23.4158956,26.9268413" id="Fill-27" fill="#00826F"></path>
                        <path d="M32.754376,30.7942214 L28.4417358,30.7942214 C28.0005331,30.7942214 27.6394991,30.4369934 27.6394991,30.0004418 C27.6394991,29.5638902 28.0005331,29.2066622 28.4417358,29.2066622 L32.754376,29.2066622 C33.1955788,29.2066622 33.5566128,29.5638902 33.5566128,30.0004418 C33.5566128,30.4369934 33.1955788,30.7942214 32.754376,30.7942214" id="Fill-29" fill="#00826F"></path>
                    </g>
                </g>
                <text id="K" font-family="GothamRounded" font-size="38" font-weight="bold" line-spacing="37" fill="#005C4E">
                    <tspan x="40" y="41">K</tspan>
                    <tspan x="64.2533401" y="45.306" font-size="34">  </tspan>
                </text>
                <text id="e" font-family="GothamRounded" font-size="34" font-weight="bold" line-spacing="37" fill="#005C4E">
                    <tspan x="80" y="39">e</tspan>
                </text>
                <text id="e" font-family="GothamRounded" font-size="34" font-weight="bold" line-spacing="37" fill="#00A991">
                    <tspan x="62" y="34">e</tspan>
                </text>
            </g>
        </g>
    </g>
</svg>