<?xml version="1.0" encoding="UTF-8"?>
<svg width="100%" height="100%" viewBox="0 0 271 157" version="1.1" xmlns="http://www.w3.org/2000/svg" xmlns:xlink="http://www.w3.org/1999/xlink">
    <!-- Generator: Sketch 51.3 (57544) - http://www.bohemiancoding.com/sketch -->
    <title>Kee-logo</title>
    <desc>Created with Sketch.</desc>
    <defs>
        <path d="M1.72434135,1.26624167 C0.602620192,2.1958125 0.0248076923,3.528 0.0256346154,4.869375 C0.0264615385,5.93349167 0.391754808,7.00312083 1.13825962,7.88185417 L34.5263125,47.1786292 C35.4671442,48.2856208 36.8144087,48.8562667 38.1713894,48.8562667 C39.2496971,48.8562667 40.3344135,48.4957083 41.2252163,47.7574417 C42.3469375,46.8278708 42.92475,45.4956833 42.9237163,44.1543083 C42.9228894,43.0901917 42.5580096,42.0207667 41.8112981,41.1418292 L8.42303846,1.84505417 C7.48241346,0.7380625 6.13514904,0.167416667 4.77816827,0.167620833 C3.69986058,0.167620833 2.61514423,0.528179167 1.72434135,1.26624167 Z" id="path-1"></path>
        <path d="M1.72434135,1.26624167 C0.602620192,2.1958125 0.0248076923,3.528 0.0256346154,4.869375 C0.0264615385,5.93349167 0.391754808,7.00312083 1.13825962,7.88185417 L34.5263125,47.1786292 C35.4671442,48.2856208 36.8144087,48.8562667 38.1713894,48.8562667 C39.2496971,48.8562667 40.3344135,48.4957083 41.2252163,47.7574417 C42.3469375,46.8278708 42.92475,45.4956833 42.9237163,44.1543083 C42.9228894,43.0901917 42.5580096,42.0207667 41.8112981,41.1418292 L8.42303846,1.84505417 C7.48241346,0.7380625 6.13514904,0.167416667 4.77816827,0.167620833 C3.69986058,0.167620833 2.61514423,0.528179167 1.72434135,1.26624167 Z" id="path-3"></path>
        <path d="M1.68819512,1.14444255 C-0.305473171,2.81218723 -0.565463415,5.7755234 1.10736585,7.76313191 L33.5010439,46.251166 C34.433239,47.3588426 35.7684293,47.9295319 37.1132488,47.9295319 C38.1820976,47.9295319 39.2570927,47.568817 40.1399122,46.8302298 C42.1333756,45.1624851 42.3935707,42.1991489 40.7207415,40.2117447 L8.32685854,1.72350638 C7.39466341,0.616238298 6.05947317,0.0453446809 4.71465366,0.0453446809 C3.64580488,0.0455489362 2.57080976,0.406059574 1.68819512,1.14444255 Z" id="path-5"></path>
        <path d="M1.68819512,1.14444255 C-0.305473171,2.81218723 -0.565463415,5.7755234 1.10736585,7.76313191 L33.5010439,46.251166 C34.433239,47.3588426 35.7684293,47.9295319 37.1132488,47.9295319 C38.1820976,47.9295319 39.2570927,47.568817 40.1399122,46.8302298 C42.1333756,45.1624851 42.3935707,42.1991489 40.7207415,40.2117447 L8.32685854,1.72350638 C7.39466341,0.616238298 6.05947317,0.0453446809 4.71465366,0.0453446809 C3.64580488,0.0455489362 2.57080976,0.406059574 1.68819512,1.14444255 Z" id="path-7"></path>
        <polygon id="path-9" points="0.114545455 13.9449859 44.8770682 9.82188732 0.759272727 0.193830986"></polygon>
        <path d="M1.52369583,0.574130435 C1.50409583,0.589206522 1.48490417,0.604695652 1.46612083,0.620184783 L1.42814583,0.652608696 C0.975508333,1.04541304 0.710295833,1.59868478 0.683141667,2.19388043 L0.0402208333,16.5956739 C0.0167416667,17.1276739 0.189670833,17.6443913 0.521033333,18.0469022 L0.5322625,18.0603261 C0.581058333,18.1187717 0.633120833,18.1747391 0.688654167,18.2278152 C1.12842917,18.6495326 1.7290875,18.857913 2.3366875,18.7992609 L47.0152958,14.4808913 C47.4605833,14.4375217 47.8654458,14.2574348 48.1880292,13.983587 C48.6184125,13.61825 48.9046542,13.08625 48.9487542,12.487337 C48.9899958,11.9214674 48.8082875,11.3865761 48.4728417,10.977663 L48.4577333,10.9594891 C48.1733292,10.620587 47.7821458,10.3704891 47.3246083,10.2655761 L3.289125,0.182152174 C3.13436667,0.146836957 2.97756667,0.129282609 2.82158333,0.129282609 C2.35771667,0.129282609 1.90079167,0.283141304 1.52369583,0.574130435 Z M4.80036667,4.92451087 L33.4947667,11.4947935 L4.38100833,14.3090652 L4.80036667,4.92451087 Z" id="path-11"></path>
        <path d="M28.5008341,6.07829822 C17.955743,15.038282 16.5041846,30.8661459 25.259271,41.4316402 C25.6526005,41.906295 26.0650374,42.3558379 26.4856051,42.792825 C22.6864696,44.4652318 19.0521869,46.7051248 15.7130537,49.5427618 C-2.74029673,65.2222188 -5.27976168,92.9209806 10.0413855,111.410081 C25.3623294,129.899387 52.741514,132.176948 71.1948645,116.497491 C89.6484182,100.817828 92.1870701,73.1198898 76.8661262,54.6303776 C72.589507,49.4696904 67.3729626,45.574269 61.6734463,42.9766353 C70.8596706,33.8449854 71.7741869,19.0362091 63.4453598,8.98530146 C58.5971425,3.13445057 51.6375491,0.124735818 44.599493,0.125147488 C38.9284346,0.125559157 33.2059486,2.08037115 28.5008341,6.07829822 Z" id="path-13"></path>
        <path d="M3.04006173,2.13066667 C-0.53245679,5.12833333 -1.02398765,10.4230988 1.94198765,13.9580494 C4.90817284,17.493 10.2086049,17.9289136 13.7807037,14.9312469 C17.3534321,11.9337901 17.844963,6.63755556 14.8789877,3.10281481 C13.2367037,1.14550617 10.8787407,0.138728395 8.49475309,0.138728395 C6.57312346,0.138728395 4.63428395,0.79291358 3.04006173,2.13066667 Z" id="path-15"></path>
        <path d="M1.33525,0.833583333 C-0.115111111,2.05041667 -0.314611111,4.19941667 0.889,5.63383333 C2.09261111,7.06825 4.24413889,7.24558333 5.6945,6.02855556 C7.14369444,4.81288889 7.34241667,2.66311111 6.139,1.22869444 C5.47225,0.434194444 4.51538889,0.0254722222 3.54763889,0.0256666667 C2.76811111,0.0256666667 1.98177778,0.290888889 1.33525,0.833583333 Z" id="path-17"></path>
        <path d="M10.9716,0.663970149 L0.94,8.83010448 C-0.0862,9.66559701 -0.2288,11.1553582 0.6232,12.1404478 C1.4752,13.1255373 3.0124,13.2477761 4.0386,12.4126716 L14.07,4.24614925 C15.0958,3.41123881 15.239,1.92128358 14.3868,0.936 C13.9148,0.39019403 13.2324,0.109432836 12.5432,0.109432836 C11.9884,0.109432836 11.429,0.291432836 10.9716,0.663970149 Z" id="path-19"></path>
        <path d="M11.6256842,0.593537313 L1.06652632,8.75908955 C-0.0136842105,9.59458209 -0.163789474,11.0843433 0.733052632,12.0694328 C1.62989474,13.0547164 3.24778947,13.1769552 4.328,12.3414627 L14.8871579,4.17571642 C15.9673684,3.34041791 16.1181053,1.85007463 15.2212632,0.864985075 C14.7244211,0.319567164 14.0063158,0.0386119403 13.2808421,0.0386119403 C12.6964211,0.0386119403 12.1075789,0.22080597 11.6256842,0.593537313 Z" id="path-21"></path>
        <path d="M11.6633684,0.577626866 L1.10442105,8.74337313 C0.0242105263,9.57867164 -0.126526316,11.0690149 0.770315789,12.0541045 C1.66715789,13.039194 3.28568421,13.1612388 4.36610526,12.3257463 L14.9250526,4.15980597 C16.0052632,3.32450746 16.1553684,1.8349403 15.2583158,0.849850746 C14.7614737,0.304044776 14.0431579,0.0228955224 13.3178947,0.0228955224 C12.7338947,0.0228955224 12.1452632,0.204895522 11.6633684,0.577626866 Z" id="path-23"></path>
        <path d="M10.9448,0.681432836 L0.913,8.84776119 C-0.113,9.6830597 -0.2556,11.1728209 0.5962,12.1579104 C1.4484,13.142806 2.9852,13.2656269 4.0116,12.4299403 L14.0434,4.26380597 C15.0688,3.42889552 15.212,1.93855224 14.36,0.953462687 C13.888,0.407850746 13.2056,0.127089552 12.5164,0.126895522 C11.9616,0.126895522 11.4022,0.309089552 10.9448,0.681432836 Z" id="path-25"></path>
        <path d="M10.9762,0.769588235 L0.9452,9.43414706 C-0.081,10.3206765 -0.2242,11.9018529 0.6278,12.9473235 C1.4804,13.9932059 3.0174,14.1218824 4.0436,13.2353529 L14.0746,4.57079412 C15.101,3.68426471 15.2442,2.10452941 14.3914,1.05844118 C13.9194,0.4795 13.237,0.181176471 12.5478,0.181176471 C11.993,0.181176471 11.434,0.374294118 10.9762,0.769588235 Z" id="path-27"></path>
        <path d="M11.0034,0.791823529 L0.9724,9.45658824 C-0.054,10.3429118 -0.1964,11.9236765 0.6554,12.9687353 C1.5074,14.014 3.0444,14.1441176 4.0706,13.2577941 L14.1018,4.59302941 C15.128,3.70670588 15.2706,2.12594118 14.4184,1.08067647 C13.9464,0.501529412 13.264,0.203411765 12.5748,0.203411765 C12.02,0.203411765 11.461,0.396529412 11.0034,0.791823529 Z" id="path-29"></path>
    </defs>
    <g id="Design" stroke="none" stroke-width="1" fill="none" fill-rule="evenodd">
        <g id="Kee-logo">
            <path d="M102.236358,141 C100.876147,141 99.5254682,140.425705 98.5828112,139.311635 L65.1150679,99.7637937 C64.3665787,98.879236 64.0006231,97.8027674 64.0000014,96.7318466 C63.9989653,95.3818945 64.5781533,94.0411887 65.7025448,93.105674 C67.719031,91.4281994 70.7252137,91.6887381 72.417396,93.6881876 L105.884932,133.236235 C106.633421,134.120792 106.999377,135.197261 106.999999,136.268182 C107.001035,137.617928 106.421847,138.958634 105.297455,139.894149 C104.404532,140.636931 103.317233,141 102.236358,141" id="Fill-1" fill="#ED7371"></path>
            <g id="Group-9" transform="translate(64.000000, 92.000000)">
                <g id="Group-5">
                    <mask id="mask-2" fill="white">
                        <use xlink:href="#path-1"></use>
                    </mask>
                    <g id="Clip-4"></g>
                    <polygon id="Fill-3" fill="#ED7371" mask="url(#mask-2)" points="6.71496683 -16.9705579 -17.3274082 2.95325042 36.2344668 65.9942004 60.2770486 46.0703921"></polygon>
                </g>
                <g id="Group-8">
                    <mask id="mask-4" fill="white">
                        <use xlink:href="#path-3"></use>
                    </mask>
                    <g id="Clip-7"></g>
                    <path d="M-10.6287111,3.5320425 L36.8205486,59.3785675 L53.5783514,45.4917633 L6.1288851,-10.3549658 L-10.6287111,3.5320425 Z M36.2369476,70.6902175 C34.8799668,70.6902175 33.5327024,70.1197758 32.5920774,69.0127842 L-20.9697976,5.97163 C-22.6577543,3.98508833 -22.395413,1.02303833 -20.3837159,-0.6439825 L3.65865913,-20.5677908 C5.67035625,-22.2348117 8.66939952,-21.9757242 10.3573563,-19.9889783 L63.919438,43.0519717 C64.7300293,44.0060425 65.1238514,45.239005 65.0138707,46.4797258 C64.9038899,47.7204467 64.2994091,48.8672508 63.333563,49.6677883 L39.2909813,69.5915967 C38.4001784,70.3296592 37.315462,70.6902175 36.2369476,70.6902175 Z" id="Fill-6" fill="#ED7371" mask="url(#mask-4)"></path>
                </g>
            </g>
            <path d="M81.2697013,157 C79.9190428,157 78.5780554,156.427725 77.6418128,155.317573 L45.1072812,116.736421 C43.4271888,114.744004 43.6885137,111.773498 45.6906324,110.101718 C47.6929568,108.430143 50.6780273,108.68997 52.3583255,110.682183 L84.8926513,149.26354 C86.5727437,151.255753 86.3116246,154.226259 84.3093002,155.898038 C83.4226476,156.638208 82.3431908,157 81.2697013,157" id="Fill-10" fill="#ED7371"></path>
            <g id="Group-18" transform="translate(44.000000, 109.000000)">
                <g id="Group-14">
                    <mask id="mask-6" fill="white">
                        <use xlink:href="#path-5"></use>
                    </mask>
                    <g id="Clip-13"></g>
                    <polygon id="Fill-12" fill="#ED7371" mask="url(#mask-6)" points="6.63397171 -17.100194 -17.1929356 2.83226553 35.1939717 65.0749889 59.0210839 45.1425294"></polygon>
                </g>
                <g id="Group-17">
                    <mask id="mask-8" fill="white">
                        <use xlink:href="#path-7"></use>
                    </mask>
                    <g id="Clip-16"></g>
                    <path d="M-10.5542722,3.41130894 L35.774801,58.4564834 L52.3822156,44.5636494 L6.05314244,-10.4817294 L-10.5542722,3.41130894 Z M34.6131424,71.6936579 L-23.8318039,2.25318128 L7.21480098,-23.7186996 L65.6597473,45.721777 L34.6131424,71.6936579 Z" id="Fill-15" fill="#ED7371" mask="url(#mask-8)"></path>
                </g>
            </g>
            <g id="Group-21" transform="translate(66.000000, 19.000000)">
                <mask id="mask-10" fill="white">
                    <use xlink:href="#path-9"></use>
                </mask>
                <g id="Clip-20"></g>
                <polygon id="Fill-19" fill="#ED7371" mask="url(#mask-10)" points="23.6445341 -37.8571239 -28.517625 4.33650986 14.5895114 53.8606225 66.7516705 11.6667915"></polygon>
            </g>
            <g id="Group-24" transform="translate(64.000000, 17.000000)">
                <mask id="mask-12" fill="white">
                    <use xlink:href="#path-11"></use>
                </mask>
                <g id="Clip-23"></g>
                <polygon id="Fill-22" fill="#ED7371" mask="url(#mask-12)" points="25.9192442 -40.5995717 -29.405635 6.35892826 16.3276983 61.4905261 71.6525775 14.5320261"></polygon>
            </g>
            <g id="Group-27">
                <mask id="mask-14" fill="white">
                    <use xlink:href="#path-13"></use>
                </mask>
                <g id="Clip-26"></g>
                <polygon id="Fill-25" fill="#00A991" mask="url(#mask-14)" points="49.4954586 -32.1569558 -55.28974 56.8770426 35.8805685 166.900004 140.665767 77.8657995"></polygon>
            </g>
            <g id="Group-30" transform="translate(38.000000, 11.000000)">
                <mask id="mask-16" fill="white">
                    <use xlink:href="#path-15"></use>
                </mask>
                <g id="Clip-29"></g>
                <polygon id="Fill-28" fill="#FEFEFE" mask="url(#mask-16)" points="11.4724605 -25.7418407 -25.8727617 5.59461605 5.34910247 42.8034185 42.6943247 11.4669617"></polygon>
            </g>
            <g id="Group-33" transform="translate(43.000000, 15.000000)">
                <mask id="mask-18" fill="white">
                    <use xlink:href="#path-17"></use>
                </mask>
                <g id="Clip-32"></g>
                <polygon id="Fill-31" fill="#1A3C57" mask="url(#mask-18)" points="5.77879167 -22.16305 -22.0847083 1.21733889 1.24959722 29.0262 29.1130972 5.64581111"></polygon>
            </g>
            <g id="Group-36" transform="translate(20.000000, 56.000000)">
                <mask id="mask-20" fill="white">
                    <use xlink:href="#path-19"></use>
                </mask>
                <g id="Clip-35"></g>
                <polygon id="Fill-34" fill="#00826F" mask="url(#mask-20)" points="14.70894 -21.6051463 -22.31446 8.53389851 0.30114 34.6815552 37.32454 4.54270448"></polygon>
            </g>
            <g id="Group-39" transform="translate(11.000000, 86.000000)">
                <mask id="mask-22" fill="white">
                    <use xlink:href="#path-21"></use>
                </mask>
                <g id="Clip-38"></g>
                <polygon id="Fill-37" fill="#00826F" mask="url(#mask-22)" points="15.5601895 -21.676103 -23.4118105 8.46294179 0.394084211 34.6105985 39.3660842 4.47155373"></polygon>
            </g>
            <g id="Group-42" transform="translate(45.000000, 53.000000)">
                <mask id="mask-24" fill="white">
                    <use xlink:href="#path-23"></use>
                </mask>
                <g id="Clip-41"></g>
                <polygon id="Fill-40" fill="#00826F" mask="url(#mask-24)" points="15.5973895 -21.6914507 -23.3746105 8.44759403 0.431284211 34.5952507 39.4032842 4.4564"></polygon>
            </g>
            <g id="Group-45" transform="translate(33.000000, 81.000000)">
                <mask id="mask-26" fill="white">
                    <use xlink:href="#path-25"></use>
                </mask>
                <g id="Clip-44"></g>
                <polygon id="Fill-43" fill="#00826F" mask="url(#mask-26)" points="14.68208 -21.5876254 -22.34132 8.5514194 0.27428 34.6990761 37.29768 4.56003134"></polygon>
            </g>
            <g id="Group-48" transform="translate(61.000000, 71.000000)">
                <mask id="mask-28" fill="white">
                    <use xlink:href="#path-27"></use>
                </mask>
                <g id="Clip-47"></g>
                <polygon id="Fill-46" fill="#00826F" mask="url(#mask-28)" points="14.71352 -22.8596735 -22.30988 9.12044412 0.30572 36.8653559 37.32912 4.88523824"></polygon>
            </g>
            <g id="Group-51" transform="translate(45.000000, 99.000000)">
                <mask id="mask-30" fill="white">
                    <use xlink:href="#path-29"></use>
                </mask>
                <g id="Clip-50"></g>
                <polygon id="Fill-49" fill="#00826F" mask="url(#mask-30)" points="14.74048 -22.8374588 -22.28232 9.14183529 0.33348 36.8869529 37.35628 4.90745294"></polygon>
            </g>
            <path d="M97,46.0841375 C97,41.011082 101.010308,37 106.082127,37 C111.153946,37 115.16405,41.011082 115.16405,46.0841375 L115.16405,73.8089474 L148.661524,40.5392983 C150.902717,38.2977631 153.143501,37 156.328236,37 C161.400055,37 164.702553,40.8930849 164.702553,45.3763597 C164.702553,48.2078801 163.405107,50.3314182 161.400055,52.2189621 L138.164186,73.92674 L163.523075,105.780833 C164.93849,107.55038 166,109.438129 166,112.151448 C166,117.224708 162.10766,121 156.799905,121 C153.261674,121 151.138449,119.230249 149.133397,116.634722 L125.543624,85.7246054 L115.16405,95.3987282 L115.16405,111.915658 C115.16405,116.988713 111.153946,121 106.082127,121 C101.010308,121 97,116.988713 97,111.915658 L97,46.0841375 Z" id="Fill-52" fill="#005C4E"></path>
            <path d="M255.751277,86.9533999 C254.804726,79.7631942 250.598421,74.899599 243.868047,74.899599 C237.242596,74.899599 232.93096,79.6576999 231.669028,86.9533999 L255.751277,86.9533999 Z M245.44536,121 C228.5144,121 216,109.051898 216,91.7115007 L216,91.4998976 C216,75.3226005 227.462518,62 243.868047,62 C262.691905,62 271,77.5431022 271,89.2793959 C271,93.9317976 267.739838,96.9980974 263.533329,96.9980974 L231.879485,96.9980974 C233.456799,104.293797 238.504732,108.100196 245.655614,108.100196 C250.072581,108.100196 253.753251,106.725697 257.013209,104.293797 C258.170015,103.447794 259.221693,103.024998 260.904337,103.024998 C264.47988,103.024998 267.108872,105.7742 267.108872,109.369201 C267.108872,111.483798 266.162525,113.0699 265.005719,114.127097 C260.062913,118.356702 253.648124,121 245.44536,121 Z" id="Fill-54" fill="#005C4E"></path>
            <path d="M199.751277,70.9533999 C198.804726,63.763399 194.598421,58.899599 187.868047,58.899599 C181.242596,58.899599 176.93096,63.6576999 175.669028,70.9533999 L199.751277,70.9533999 Z M189.44536,105 C172.5144,105 160,93.0518983 160,75.7115007 L160,75.5001024 C160,59.3226005 171.462518,46 187.868047,46 C206.691905,46 215,61.5431022 215,73.2796007 C215,77.9320024 211.739838,80.9983022 207.533329,80.9983022 L175.879485,80.9983022 C177.456799,88.2940023 182.504732,92.100401 189.655614,92.100401 C194.072581,92.100401 197.753251,90.7259023 201.013209,88.2940023 C202.170015,87.4479993 203.221693,87.0249978 204.904337,87.0249978 C208.47988,87.0249978 211.108872,89.7742002 211.108872,93.3692006 C211.108872,95.4837983 210.162525,97.070105 209.005719,98.1273014 C204.062913,102.356702 197.648124,105 189.44536,105 Z" id="Fill-56" fill="#00A991"></path>
        </g>
    </g>
</svg>