<?xml version="1.0" encoding="UTF-8"?>
<svg width="38px" height="52px" viewBox="0 0 38 52" version="1.1" xmlns="http://www.w3.org/2000/svg" xmlns:xlink="http://www.w3.org/1999/xlink">
    <!-- Generator: Sketch 51.3 (57544) - http://www.bohemiancoding.com/sketch -->
    <title>passport icon</title>
    <desc>Created with Sketch.</desc>
    <defs>
        <polygon id="path-1" points="0 52 38 52 38 0 0 0"></polygon>
    </defs>
    <g id="Design" stroke="none" stroke-width="1" fill="none" fill-rule="evenodd">
        <g id="iPhone-X" transform="translate(-45.000000, -233.000000)">
            <g id="passport-icon" transform="translate(45.000000, 233.000000)">
                <path d="M30,21 C30,27.075 25.075,32 19,32 C12.925,32 8,27.075 8,21 C8,14.925 12.925,10 19,10 C25.075,10 30,14.925 30,21" id="Fill-1" fill="#FFCB57"></path>
                <path d="M2,50 L33,50 C34.654,50 36,48.654 36,47 L36,5 C36,3.346 34.654,2 33,2 L2,2 L2,50 Z M33,52 L0,52 L0,0 L33,0 C35.757,0 38,2.243 38,5 L38,47 C38,49.757 35.757,52 33,52 Z" id="Fill-3" fill="#3F3A34"></path>
                <path d="M19,8 C11.832,8 6,13.832 6,21 C6,28.168 11.832,34 19,34 C26.168,34 32,28.168 32,21 C32,13.832 26.168,8 19,8 M19,36 C10.729,36 4,29.271 4,21 C4,12.729 10.729,6 19,6 C27.271,6 34,12.729 34,21 C34,29.271 27.271,36 19,36" id="Fill-5" fill="#3F3A34"></path>
                <mask id="mask-2" fill="white">
                    <use xlink:href="#path-1"></use>
                </mask>
                <g id="Clip-8"></g>
                <polygon id="Fill-7" fill="#3F3A34" mask="url(#mask-2)" points="18 35 20 35 20 7 18 7"></polygon>
                <polygon id="Fill-9" fill="#3F3A34" mask="url(#mask-2)" points="5 22 33 22 33 20 5 20"></polygon>
                <path d="M19.4961,35.8682 L18.5041,34.1322 C18.7671,33.9792 25.0001,30.2602 25.0001,21.0002 C25.0001,11.7402 18.7671,8.0202 18.5011,7.8672 L19.4961,6.1322 C19.8031,6.3062 27.0001,10.5402 27.0001,21.0002 C27.0001,31.4602 19.8031,35.6932 19.4961,35.8682" id="Fill-10" fill="#3F3A34" mask="url(#mask-2)"></path>
                <path d="M19,15 C12.738,15 8.574,11.931 8.4,11.8 L9.599,10.198 C9.636,10.227 13.433,13 19,13 C24.567,13 28.364,10.227 28.401,10.198 L29.6,11.8 C29.426,11.931 25.262,15 19,15" id="Fill-11" fill="#3F3A34" mask="url(#mask-2)"></path>
                <path d="M18.5039,35.8682 C18.1969,35.6932 10.9999,31.4602 10.9999,21.0002 C10.9999,10.5402 18.1969,6.3062 18.5039,6.1322 L19.4959,7.8682 C19.2329,8.0202 12.9999,11.7402 12.9999,21.0002 C12.9999,30.2602 19.2329,33.9792 19.4989,34.1332 L18.5039,35.8682 Z" id="Fill-12" fill="#3F3A34" mask="url(#mask-2)"></path>
                <path d="M28.4014,31.8018 C28.3644,31.7738 24.5674,28.9998 19.0004,28.9998 C13.4324,28.9998 9.6354,31.7738 9.5984,31.8018 L8.4004,30.1998 C8.5744,30.0698 12.7384,26.9998 19.0004,26.9998 C25.2614,26.9998 29.4254,30.0698 29.5994,30.1998 L28.4014,31.8018 Z" id="Fill-13" fill="#3F3A34" mask="url(#mask-2)"></path>
                <polygon id="Fill-14" fill="#3F3A34" mask="url(#mask-2)" points="5 42 7 42 7 40 5 40"></polygon>
                <polygon id="Fill-15" fill="#3F3A34" mask="url(#mask-2)" points="9 42 34 42 34 40 9 40"></polygon>
                <polygon id="Fill-16" fill="#3F3A34" mask="url(#mask-2)" points="5 46 30 46 30 44 5 44"></polygon>
            </g>
        </g>
    </g>
</svg>