<?xml version="1.0" encoding="UTF-8"?>
<svg width="229px" height="223px" viewBox="0 0 229 223" version="1.1" xmlns="http://www.w3.org/2000/svg" xmlns:xlink="http://www.w3.org/1999/xlink">
    <!-- Generator: Sketch 51.3 (57544) - http://www.bohemiancoding.com/sketch -->
    <title>route-spot-illustration</title>
    <desc>Created with Sketch.</desc>
    <defs>
        <polygon id="path-1" points="0.0702341912 0.162556701 76.7276691 0.162556701 76.7276691 26.8803093 0.0702341912 26.8803093"></polygon>
    </defs>
    <g id="Design" stroke="none" stroke-width="1" fill="none" fill-rule="evenodd">
        <g id="route-spot-illustration">
            <path d="M35.0012678,115 C21.1961954,114.997462 10,126.207121 10,140.023125 C10,145.046588 11.4819323,149.717538 14.0268551,153.636364 L35.0012678,190 L55.9731449,153.631006 C58.5155321,149.715 60,145.040948 60,140.023125 C60,126.207121 48.8066219,115 35.0012678,115" id="Fill-1" fill="#ED7371"></path>
            <path d="M35.5011327,115.741276 C29.1552806,115.741276 23.1894602,118.210603 18.7027057,122.695632 C14.2131194,127.179529 11.7429124,133.141173 11.7429124,139.480037 C11.7429124,144.080524 13.0662275,148.545461 15.5684342,152.393491 L35.5011327,186.888228 L55.3939025,152.449805 C57.9332062,148.538669 59.2568044,144.074864 59.2568044,139.480037 C59.2568044,126.39 48.6006209,115.741276 35.5011327,115.741276 M35.5011327,191 C35.0112258,191 34.5581327,190.738805 34.3145952,190.31461 L13.232456,153.825961 C10.4759508,149.594769 9,144.611687 9,139.480037 C9,124.878861 20.885765,113 35.4957523,113 C50.1114032,113 62,124.878861 62,139.480037 C62,144.607725 60.523766,149.586846 57.7298806,153.881709 L36.6879535,190.31461 C36.4444159,190.738805 35.991606,191 35.5011327,191" id="Fill-3" fill="#000000"></path>
            <path d="M132,27.0228432 C132,32.0463065 133.481932,36.7175379 136.027137,40.6363638 L157.00155,77 L177.973427,40.6310056 C180.515532,36.7149998 182,32.0409483 182,27.0228432 C182,13.2068386 170.806622,2.00000043 157.00155,2.00000043 C143.196195,1.99746233 132,13.2068386 132,27.0228432 Z" id="Fill-5" fill="#00A991"></path>
            <path d="M157.501558,2.74099255 C151.155388,2.74099255 145.189536,5.2106025 140.702758,9.69591449 C136.212864,14.1795286 133.74321,20.1411732 133.74321,26.4800369 C133.74321,31.0805237 135.066532,35.5454608 137.568469,39.3934906 L157.501558,73.8882282 L177.394434,39.4498046 C179.934034,35.5386692 181.257356,31.074864 181.257356,26.4800369 C181.257356,13.3900005 170.600832,2.74099255 157.501558,2.74099255 M157.501558,78 C157.011365,78 156.558552,77.7390878 156.315014,77.3146104 L135.232479,40.8256776 C132.476242,36.5947691 131,31.6116866 131,26.4800369 C131,11.8788607 142.886112,0 157.495894,0 C172.111906,0 184,11.8788607 184,26.4800369 C184,31.6077248 182.524324,36.5868456 179.730424,40.8817086 L158.688101,77.3146104 C158.444563,77.7390878 157.991467,78 157.501558,78" id="Fill-7" fill="#000000"></path>
            <path d="M35.3625289,212 C34.750864,212 34.1948817,211.582911 34.040489,210.956282 C33.8596612,210.219339 34.3011848,209.471593 35.0326517,209.287641 L190.307514,170.042312 C191.02042,169.855517 191.776072,170.304734 191.959712,171.044236 C192.139978,171.781178 191.698735,172.528641 190.967268,172.712876 L35.6926873,211.95849 C35.5835719,211.986353 35.4716443,212 35.3625289,212" id="Fill-9" fill="#000000"></path>
            <path d="M184,100 C184,104.970869 171.912842,109 157,109 C142.086875,109 130,104.970869 130,100 C130,95.0316987 142.086875,91 157,91 C171.912842,91 184,95.0316987 184,100" id="Fill-11" fill="#FFE591"></path>
            <path d="M157.5,91.7949796 C141.548514,91.7949796 131.7525,96.2818927 131.7525,99.4998557 C131.7525,102.717819 141.548514,107.20502 157.5,107.20502 C173.451486,107.20502 183.246931,102.717819 183.246931,99.4998557 C183.246931,96.2818927 173.451486,91.7949796 157.5,91.7949796 M157.5,110 C143.682653,110 129,106.319237 129,99.4998557 C129,92.6804748 143.682653,89 157.5,89 C171.317062,89 186,92.6804748 186,99.4998557 C186,106.319237 171.317062,110 157.5,110" id="Fill-13" fill="#000000"></path>
            <path d="M228,171.99861 C228,178.627949 211.437121,184 191,184 C170.562879,184 154,178.627949 154,171.99861 C154,165.374554 170.562879,160 191,160 C211.437121,160 228,165.374554 228,171.99861" id="Fill-15" fill="#FFE591"></path>
            <g id="Group-19" transform="translate(152.000000, 158.000000)">
                <mask id="mask-2" fill="white">
                    <use xlink:href="#path-1"></use>
                </mask>
                <g id="Clip-18"></g>
                <path d="M38.3989658,2.85865979 C17.4283555,2.85865979 2.81250993,8.47772165 2.81250993,13.5200412 C2.81250993,18.5637526 17.4283555,24.1839278 38.3989658,24.1839278 C59.3695761,24.1839278 73.9857048,18.5637526 73.9857048,13.5200412 C73.9857048,8.47772165 59.3695761,2.85865979 38.3989658,2.85865979 M38.3989658,26.8803093 C19.817054,26.8803093 0.0702341912,22.1976186 0.0702341912,13.5200412 C0.0702341912,4.84413402 19.817054,0.162556701 38.3989658,0.162556701 C56.9808776,0.162556701 76.7276974,4.84413402 76.7276974,13.5200412 C76.7276974,22.1976186 56.9808776,26.8803093 38.3989658,26.8803093" id="Fill-17" fill="#000000" mask="url(#mask-2)"></path>
            </g>
            <path d="M69,210 C69,216.075017 54.0029875,221 35.49986,221 C16.9970125,221 2,216.075017 2,210 C2,203.924983 16.9970125,199 35.49986,199 C54.0029875,199 69,203.924983 69,210" id="Fill-20" fill="#FFE591"></path>
            <path d="M34.9998594,200.727314 C15.9788445,200.727314 2.72282973,205.877561 2.72282973,210.500141 C2.72282973,215.122721 15.9788445,220.272686 34.9998594,220.272686 C54.0211555,220.272686 67.2768892,215.122721 67.2768892,210.500141 C67.2768892,205.877561 54.0211555,200.727314 34.9998594,200.727314 M34.9998594,223 C18.0317895,223 0,218.618728 0,210.500141 C0,202.381554 18.0317895,198 34.9998594,198 C51.9679294,198 70,202.381554 70,210.500141 C70,218.618728 51.9679294,223 34.9998594,223" id="Fill-22" fill="#000000"></path>
        </g>
    </g>
</svg>